# xmcd
#
# Track frame offsets:
# 150
# 10946
# 32691
# 43040
# 66133
# 96153
# 124962
# 138468
# 168131
#
# Disc length: 2582 seconds
#
#
# Revision: 0
# Processed by: cddbd v1.5.2PL0 Copyright (c) Steve Scherf et al.
# Submitted via: FreeRIP 2.944 
#
DISCID=740a1409
DTITLE=Dulce Pontes - Momentos CD1
DYEAR=2009
DGENRE=Pop
TTITLE0=Fadinho Serrano
TTITLE1=Verde Pino Verde Mastro
TTITLE2=Julia Galderia
TTITLE3=Medo
TTITLE4=Lagrima
TTITLE5=Naufragio
TTITLE6=Fado Os Maias
TTITLE7=Uma Mulher na Cidade
TTITLE8=Cancao do Mar
EXTD=
EXTT0=
EXTT1=
EXTT2=
EXTT3=
EXTT4=
EXTT5=
EXTT6=
EXTT7=
EXTT8=
PLAYORDER=
